<svg width="260" height="115" viewBox="0 0 260 115" fill="none" xmlns="http://www.w3.org/2000/svg">
<g filter="url(#filter0_d_3369_1548)">
<path d="M94.2359 18.5599C94.1703 18.0577 94.0828 17.5657 93.9625 17.0854C93.8532 16.6051 93.7111 16.135 93.526 15.6766C93.351 15.2283 93.1542 14.7917 92.9254 14.3872C92.5864 13.7647 92.1717 13.1962 91.7125 12.694C91.5595 12.53 91.3962 12.366 91.2322 12.2137C90.5661 11.5804 89.8015 11.0774 88.9495 10.7064C87.6608 10.1496 86.284 9.96374 84.9079 10.0949C84.7439 10.1059 84.5908 10.1277 84.4276 10.1496C84.3073 10.1605 84.1871 10.1824 84.0668 10.2152C83.8481 10.2589 83.6302 10.3027 83.4225 10.3573C81.3256 10.9142 79.2935 12.1926 77.6222 14.0389C77.4473 14.2247 77.2833 14.4098 77.1302 14.6066C76.9881 14.7597 76.8678 14.9237 76.7475 15.0877C76.6382 15.2298 76.5398 15.372 76.4414 15.5133C76.3867 15.5789 76.343 15.6445 76.2992 15.7211C76.1571 15.9179 76.0259 16.1256 75.9064 16.3326C75.7424 16.584 75.5893 16.8566 75.448 17.1299L72.007 22.9849L62.897 38.506L59.0632 39.7844C58.4954 39.9703 58.0253 40.3741 57.7628 40.9207L25.6484 106.942C25.6703 106.92 25.6812 106.887 25.7031 106.854C25.7796 106.723 25.889 106.527 26.0311 106.287C26.2935 105.85 26.6426 105.249 27.08 104.484C27.1565 104.364 27.233 104.233 27.2986 104.112C27.4298 103.894 27.572 103.654 27.7032 103.413C27.8672 103.14 28.0312 102.857 28.2053 102.561C28.3584 102.299 28.5224 102.026 28.6747 101.742C28.784 101.567 28.8934 101.381 28.9918 101.207C29.3635 100.574 29.7564 99.8967 30.1718 99.1751C30.3796 98.8143 30.5982 98.4543 30.8161 98.0716C31.1223 97.5577 31.4386 97.0118 31.7556 96.455C32.0181 96.0067 32.2906 95.5483 32.564 95.0789C32.6842 94.8712 32.8045 94.6525 32.9357 94.4455C33.1544 94.0738 33.373 93.6919 33.5909 93.3092C33.7112 93.0905 33.8424 92.8727 33.9736 92.643C34.0173 92.5884 34.0501 92.5228 34.0829 92.4572C34.4766 91.7801 34.8803 91.092 35.2958 90.3813C35.5254 89.9877 35.7652 89.584 35.9948 89.1802C36.1369 88.9397 36.2783 88.6991 36.4095 88.4594C36.4641 88.3828 36.5079 88.3063 36.5516 88.2188C36.7922 87.8143 37.0327 87.3996 37.2725 86.9849C37.8512 86.0017 38.4416 84.9856 39.0312 83.9703C39.1843 83.7079 39.3373 83.4572 39.4787 83.1948C40.9094 80.759 42.3847 78.2356 43.881 75.6686C44.0341 75.3952 44.1981 75.1227 44.3613 74.8494C44.6019 74.4339 44.8416 74.0082 45.0931 73.5928C45.5625 72.7735 46.0436 71.9543 46.5239 71.135C47.2556 69.8902 47.9765 68.6554 48.6973 67.4317C48.8504 67.1583 49.0144 66.8748 49.1776 66.6015C51.4713 62.6693 53.7439 58.8019 55.8627 55.1868C56.1142 54.7713 56.354 54.3566 56.5945 53.9521C59.7949 48.4907 62.6463 43.6737 64.7432 40.1562C64.8306 40.0031 64.929 39.8391 65.0275 39.6868C65.9451 38.1358 66.7097 36.8683 67.2774 35.9514C67.3321 35.853 67.3868 35.7655 67.4414 35.6781C67.7367 35.2087 67.9655 34.837 68.1186 34.5855C68.1732 34.509 68.2169 34.4543 68.2607 34.3996C68.3044 34.3231 68.3372 34.2684 68.37 34.2356C71.2214 30.5213 75.1754 31.1883 77.6878 32.9361C78.1033 33.2203 78.5508 33.4601 79.0202 33.6678C82.5377 35.1861 86.6885 33.974 89.7906 30.9258C90.6754 30.0519 91.4618 29.0468 92.1389 27.9113C92.4779 27.3435 92.7832 26.7429 93.0566 26.1088C94.1492 23.5738 94.5201 20.9411 94.2359 18.5599ZM79.8941 31.2421C78.9983 30.8595 78.2556 30.237 77.6659 29.4506C77.3004 28.9586 77.024 28.383 76.7897 27.7762C76.3422 26.6094 76.1196 25.2724 76.1915 23.8362V23.7706C76.2243 23.4098 76.2571 23.0388 76.3117 22.667L76.3445 22.4702C76.4101 22.0993 76.4867 21.7166 76.5851 21.3339C76.7491 20.7006 76.967 20.0664 77.2403 19.444C79.3817 14.4957 84.0457 11.7319 87.6507 13.2938C87.9459 13.425 88.2294 13.5781 88.5027 13.753C88.7651 13.9389 89.0166 14.1349 89.2454 14.3645C89.475 14.5832 89.682 14.823 89.8788 15.0854C90.9495 16.527 91.4736 18.5263 91.3533 20.7107C91.3642 20.7326 91.3533 20.7544 91.3533 20.7763C91.3314 21.1691 91.2877 21.5628 91.2221 21.9564C91.1565 22.3711 91.069 22.7865 90.9597 23.2012C90.7957 23.8346 90.5778 24.4688 90.3044 25.0912C88.163 30.0511 83.5092 32.8041 79.8941 31.2421Z" fill="url(#paint0_linear_3369_1548)"/>
<path d="M79.2799 32.6475C83.4526 34.45 88.8382 31.2714 91.3178 25.5477C93.7865 19.813 92.4104 13.7175 88.2376 11.915C84.0758 10.1016 78.6793 13.2911 76.2107 19.0148C73.7303 24.7394 75.1071 30.8458 79.2799 32.6475ZM77.2259 19.4522C79.3666 14.5039 84.0313 11.7401 87.6355 13.302C91.2514 14.864 92.4307 20.1512 90.29 25.0994C88.1494 30.0586 83.4846 32.8115 79.8805 31.2496C76.2755 29.6986 75.0853 24.4114 77.2259 19.4522Z" fill="url(#paint1_linear_3369_1548)"/>
<path d="M62.8712 38.5156L25.6258 106.949L25.5938 107.001L57.737 40.9234C57.9955 40.3861 58.4657 39.976 59.0342 39.7894L62.8712 38.5156Z" fill="url(#paint2_linear_3369_1548)"/>
<path d="M87.4062 10.2297C87.4062 10.2297 89.5032 9.23941 90.7152 6.88477C92.7294 2.97053 91.8594 0.21526 92.4904 0.0122068C93.0027 -0.152579 93.6337 1.34923 93.2245 4.6262C92.8785 7.39475 90.5044 11.6089 90.5044 11.6089L87.4062 11.4214V10.2297Z" fill="url(#paint3_linear_3369_1548)"/>
<path d="M80.8078 88.9767L70.8894 68.5941L57.4317 40.925C57.1693 40.3791 56.6999 39.9746 56.1321 39.7887L52.2983 38.5102L43.1883 22.9884C43.068 22.7806 42.4128 21.6779 41.7138 20.476L41.7029 20.4651C41.681 20.4323 41.6591 20.3885 41.6373 20.3557C41.5397 20.1964 40.8071 19.0124 40.3807 18.3674C40.3369 18.2908 40.2932 18.2252 40.2495 18.1487C37.1256 13.3426 33.4987 11.1246 30.5061 10.1203C30.1562 10.0766 29.7962 10.0547 29.4463 10.0547C28.3537 10.0547 27.272 10.2624 26.2458 10.7099C26.0053 10.8193 25.7765 10.9286 25.5469 11.0598C26.7261 11.0598 30.6482 12.9498 30.6482 12.9498C30.6482 12.9498 30.6701 12.9607 30.7138 12.9716C30.7357 12.9826 30.7685 12.9935 30.7903 13.0044C33.7502 14.1946 36.6781 17.2646 38.7102 20.3339C42.6096 26.2107 46.6839 33.9337 46.8151 34.2282C46.8261 34.2391 46.8261 34.2391 46.8261 34.2391C47.7546 35.4293 57.9026 52.7216 68.0935 70.1553C72.0585 76.9279 76.0235 83.7223 79.4426 89.6101C84.893 98.9498 88.9791 105.984 89.5469 106.945L80.8078 88.9767Z" fill="url(#paint4_linear_3369_1548)"/>
<path d="M58.9709 46.8839C58.9709 47.6438 58.3547 48.26 57.5948 48.26C56.8349 48.26 56.2188 47.6438 56.2188 46.8839C56.2188 46.124 56.8349 45.5078 57.5948 45.5078C58.3547 45.5078 58.9709 46.124 58.9709 46.8839Z" fill="url(#paint5_linear_3369_1548)"/>
<path d="M58.4798 46.8848C58.4798 47.3901 58.0698 47.8001 57.5637 47.8001C57.0585 47.8001 56.6484 47.3901 56.6484 46.8848C56.6484 46.3788 57.0585 45.9688 57.5637 45.9688C58.0698 45.9695 58.4798 46.3795 58.4798 46.8848Z" fill="url(#paint6_linear_3369_1548)"/>
<path d="M112 58.8433C99.4974 49.3736 90.4431 64.8726 70.9735 74.0787C70.6159 74.2457 70.2488 74.4126 69.8824 74.5876C64.338 77.0799 57.956 79.0458 50.4472 79.8006C26.2186 82.205 2.65416 62.6169 4.05991 34.489C4.85454 18.665 13.4283 12.4167 20.8933 10.6705C22.8141 10.2319 24.5688 10.021 26.1755 10.0035C26.1755 10.0035 26.5507 9.9859 27.1618 10.0298C27.3104 10.0386 27.4764 10.0474 27.6506 10.065C28.1743 10.1177 28.7941 10.2055 29.4664 10.3548C29.8765 10.4427 30.3135 10.5657 30.7673 10.7232C33.1593 11.5307 36.0582 13.3121 38.5551 17.1735C38.5901 17.235 38.625 17.2877 38.66 17.3492C38.9484 17.8405 39.3235 18.3676 39.6644 18.9467C38.0401 16.9369 36.2854 15.5151 34.7143 14.6197C32.8634 13.5493 31.4927 13.154 30.9952 13.0404C30.8641 13.0053 30.7942 12.9965 30.7942 12.9965C27.0394 12.0572 22.3253 12.7856 18.5182 15.559C18.5182 15.559 18.5094 15.5678 18.492 15.5766C15.829 17.5337 13.6112 20.5003 12.5025 24.6165C11.8477 27.0297 11.525 29.6274 11.5337 32.2954C11.5862 44.7662 19.0338 58.8258 34.9502 63.89C44.1001 66.8039 52.5608 63.4771 60.8112 58.9575C61.5621 58.5446 62.3043 58.1236 63.0465 57.7026C71.4367 52.8931 79.6527 47.3024 88.209 46.2671C108.133 43.8451 111.8 57.9925 111.992 58.8082C112 58.8345 112 58.8433 112 58.8433Z" fill="url(#paint7_linear_3369_1548)"/>
<path d="M6.43523 36.4531C6.43523 36.4531 5.68472 53.9071 21.433 62.9187C37.1806 71.9304 43.8696 63.0554 53.9754 63.0554C60.3247 63.0554 65.6494 66.8783 68.1079 72.6442C68.1079 72.6442 61.2127 81.4887 47.0123 81.7621C32.8111 82.0346 1.63303 64.8774 6.43523 36.4531Z" fill="url(#paint8_linear_3369_1548)"/>
<path d="M20 68.7449C20 68.7449 29.8575 77.2443 49.5202 76.2229C67.6682 75.28 87.9836 60.0295 92.1396 57.5182C96.2957 55.007 100.365 54.1579 103 55.967C103 55.967 100.328 56.5576 96.6172 59.4015C89.0329 65.2129 73.3537 77.6581 53.9424 79.6757C29.271 82.2408 20 68.7449 20 68.7449Z" fill="url(#paint9_linear_3369_1548)"/>
<path d="M88.21 46.2374C79.651 47.2558 71.4323 52.755 63.0394 57.4858C62.297 57.8999 61.5546 58.3146 60.8034 58.7201C52.5497 63.1658 44.0869 66.4375 34.9341 63.5719C18.8314 58.5375 11.4114 44.4506 11.5219 32.0815C11.5256 31.7019 11.5362 31.3236 11.5544 30.9471C11.5631 30.7551 11.5693 30.5626 11.5818 30.3712C11.618 29.8293 11.668 29.2924 11.7329 28.7604C11.7529 28.5974 11.7798 28.437 11.8023 28.2753C11.8591 27.8698 11.9246 27.4673 11.9983 27.0693C12.0327 26.8872 12.0664 26.7051 12.1038 26.5243C12.215 25.9898 12.3355 25.459 12.4785 24.9406C13.5875 20.8918 15.8061 17.9737 18.4699 16.0487C18.4873 16.04 18.4961 16.0314 18.4961 16.0314C22.3038 13.3034 27.0201 12.5868 30.776 13.5108C30.776 13.5108 30.846 13.5194 30.9771 13.554C31.4748 13.6663 32.846 14.0545 34.6974 15.1074C36.2697 15.9882 38.025 17.3867 39.6491 19.3636C33.9025 9.82427 23.0026 12.285 23.0026 12.285C3.67911 17.117 7.96391 40.2389 9.49625 44.9895C10.8581 49.2098 13.244 53.8931 17.0374 59.0392C25.9424 71.1202 39.1096 73.7445 51.3127 71.0171C70.1748 66.801 84.7576 52.6007 96.0784 50.9849C107.374 49.3728 111.773 57.9857 112 58.5733C111.808 57.7709 108.14 43.855 88.21 46.2374Z" fill="url(#paint10_linear_3369_1548)"/>
<path d="M58.3125 53.4696L89.5397 106.947L62.4845 51.3281L58.3125 53.4696Z" fill="url(#paint11_linear_3369_1548)"/>
<path d="M88.5228 83.552C87.8828 83.552 87.6481 82.976 87.8188 81.824C87.9468 80.3307 88.1601 78.496 88.4588 76.32C88.8001 74.1013 89.2054 71.5413 89.6748 68.64C89.8881 68 90.2294 67.68 90.6988 67.68C91.2961 67.68 91.5948 67.9573 91.5948 68.512C91.5948 68.5547 91.5948 68.64 91.5948 68.768C91.5948 68.8533 91.5734 68.96 91.5308 69.088C91.4454 69.472 91.3601 69.8987 91.2748 70.368C91.2321 70.7947 91.2108 71.264 91.2108 71.776C91.2108 72.3733 91.2321 73.0133 91.2748 73.696C91.3601 74.3787 91.4881 75.104 91.6588 75.872C91.9148 75.872 92.9601 74.9547 94.7948 73.12C96.6294 71.3707 98.1228 70.3253 99.2748 69.984V69.92C99.4028 69.8773 99.5308 69.856 99.6588 69.856C99.7868 69.856 99.8934 69.856 99.9788 69.856C100.789 69.856 101.323 70.24 101.579 71.008L102.475 76.96C102.859 79.5627 103.563 80.864 104.587 80.864C105.013 80.864 105.44 80.7147 105.867 80.416C106.464 79.9893 107.04 79.5413 107.595 79.072C108.149 78.56 108.64 78.0267 109.067 77.472C109.323 77.3867 109.493 77.344 109.579 77.344C109.877 77.344 110.027 77.536 110.027 77.92C110.027 78.176 109.856 78.5173 109.515 78.944C108.96 79.6267 108.384 80.3307 107.787 81.056C107.189 81.7387 106.592 82.272 105.995 82.656C105.184 83.1253 104.501 83.36 103.947 83.36C102.795 83.36 101.92 82.4213 101.323 80.544L100.235 75.36C99.8508 73.6107 99.3601 72.8213 98.7628 72.992C98.7201 72.992 98.6561 72.992 98.5708 72.992C98.5281 72.9493 98.4641 72.928 98.3788 72.928C98.2081 72.928 97.9948 72.9707 97.7388 73.056C97.5254 73.1413 97.3121 73.2907 97.0988 73.504L95.5628 75.104C94.2401 76.4693 93.1308 77.792 92.2348 79.072C91.3388 80.352 90.6134 81.5467 90.0588 82.656C89.7174 83.2533 89.2054 83.552 88.5228 83.552ZM123.004 89.76C121.81 89.76 121.127 88.3307 120.956 85.472L121.148 81.888C121.276 80.096 121.191 79.008 120.892 78.624C116.242 82.7627 113.02 84.832 111.228 84.832C109.394 84.832 108.476 83.5947 108.476 81.12C108.476 79.328 109.052 77.3227 110.204 75.104C111.314 72.9707 112.466 71.4347 113.66 70.496C115.324 69.216 116.732 68.576 117.884 68.576C118.78 68.576 119.676 68.7893 120.572 69.216C120.658 69.2587 120.743 69.3227 120.828 69.408C120.956 69.4933 121.084 69.5787 121.212 69.664C121.511 69.8773 121.682 69.984 121.724 69.984C121.852 69.984 121.916 69.856 121.916 69.6C122.087 67.4667 122.343 65.0987 122.684 62.496C123.068 59.8507 123.538 56.9707 124.092 53.856C124.306 52.832 124.604 51.6587 124.988 50.336C125.415 49.0133 125.927 47.5627 126.524 45.984C127.207 44.2773 128.167 43.424 129.404 43.424C131.239 43.424 132.263 45.0027 132.476 48.16C132.519 48.3733 132.54 48.608 132.54 48.864C132.54 49.0773 132.54 49.2907 132.54 49.504C132.54 52.832 131.751 56.3307 130.172 60L124.028 72.288C123.986 73.7387 124.05 75.8933 124.22 78.752C124.263 79.1787 124.327 79.7973 124.412 80.608C124.54 81.376 124.668 82.1653 124.796 82.976C124.924 83.7867 125.031 84.4693 125.116 85.024C125.244 85.6213 125.308 85.9413 125.308 85.984C125.308 87.008 125.074 87.8827 124.604 88.608C124.135 89.376 123.602 89.76 123.004 89.76ZM124.604 67.296L128.892 58.272C129.746 56.5227 130.3 54.8587 130.556 53.28C130.855 51.6587 130.962 50.1227 130.876 48.672C130.748 46.3253 130.364 45.152 129.724 45.152C129.127 45.152 128.466 46.112 127.74 48.032C127.356 49.0133 127.036 50.0587 126.78 51.168C126.524 52.2347 126.311 53.3653 126.14 54.56L126.076 54.624C125.906 55.9893 125.692 57.7387 125.436 59.872C125.18 61.9627 124.903 64.4373 124.604 67.296ZM110.972 82.208C112.423 82.336 113.98 81.888 115.644 80.864C116.626 80.2667 117.522 79.4987 118.332 78.56C119.186 77.5787 119.975 76.4693 120.7 75.232H120.764C120.892 74.6347 120.956 74.0587 120.956 73.504C120.956 71.1573 120.103 69.984 118.396 69.984C117.159 69.984 115.794 70.752 114.3 72.288C113.234 73.44 112.338 74.72 111.612 76.128C110.588 78.0907 110.076 79.6693 110.076 80.864C110.076 81.6747 110.375 82.1227 110.972 82.208ZM133.115 83.552C132.689 83.552 132.411 83.0613 132.283 82.08C132.155 81.056 132.091 80.0107 132.091 78.944C132.091 78.2613 132.091 77.6427 132.091 77.088C132.134 76.4907 132.155 76.0427 132.155 75.744C132.155 75.3173 132.177 74.784 132.219 74.144C132.262 73.4613 132.326 72.6933 132.411 71.84C132.539 70.0907 132.603 68.768 132.603 67.872C132.603 67.4453 132.582 67.04 132.539 66.656C132.497 66.2293 132.475 65.8453 132.475 65.504V65.248C132.475 64.736 132.753 64.48 133.307 64.48C133.734 64.48 133.969 64.736 134.011 65.248C134.097 65.7173 134.161 66.6773 134.203 68.128C134.246 69.5787 134.289 71.4987 134.331 73.888C134.331 74.528 134.459 74.848 134.715 74.848C135.014 74.848 135.462 74.3573 136.059 73.376C137.297 71.328 138.641 69.6 140.091 68.192C141.158 67.2107 142.139 66.72 143.035 66.72C144.102 66.72 145.019 67.1893 145.787 68.128C146.043 68.4267 146.171 68.7467 146.171 69.088C146.171 69.6427 145.937 69.92 145.467 69.92C145.297 69.92 145.105 69.856 144.891 69.728L144.827 69.792C144.017 69.1947 143.483 68.896 143.227 68.896C142.203 68.896 141.243 69.4507 140.347 70.56C137.233 74.4 135.313 78.2827 134.587 82.208C134.417 83.104 133.926 83.552 133.115 83.552ZM153.406 85.344C151.529 85.344 149.993 84.768 148.798 83.616C147.646 82.464 147.07 80.9067 147.07 78.944C147.07 78.5173 147.092 78.0907 147.134 77.664C147.22 77.2373 147.305 76.8107 147.39 76.384C147.86 74.5493 149.161 72.5867 151.294 70.496C153.684 68.2347 155.753 67.104 157.502 67.104C158.953 67.104 159.636 67.9147 159.55 69.536C159.508 71.6267 158.356 73.6747 156.094 75.68C155.113 76.4907 154.089 77.2373 153.022 77.92C151.998 78.6027 150.91 78.944 149.758 78.944H149.694C149.822 81.7173 151.252 83.104 153.982 83.104C154.878 83.104 155.881 82.8907 156.99 82.464C157.076 82.4213 157.204 82.4 157.374 82.4C157.929 82.4 158.206 82.6773 158.206 83.232C158.206 83.616 158.014 83.9147 157.63 84.128C156.436 84.9387 155.028 85.344 153.406 85.344ZM151.422 75.936C152.745 75.6373 153.876 75.0827 154.814 74.272C156.478 72.864 157.31 71.52 157.31 70.24V70.112C157.31 69.8133 157.204 69.5787 156.99 69.408C156.777 69.2373 156.628 69.1947 156.542 69.28C155.22 69.28 153.812 70.24 152.318 72.16C152.105 72.4587 151.849 72.864 151.55 73.376C151.252 73.8453 150.932 74.4213 150.59 75.104C150.548 75.1893 150.526 75.2747 150.526 75.36C150.526 75.744 150.825 75.936 151.422 75.936ZM157.246 62.112C156.862 62.112 156.67 61.9413 156.67 61.6C156.67 61.344 156.862 61.024 157.246 60.64L158.974 59.04C159.486 58.528 160.062 57.9733 160.702 57.376C161.342 56.7787 161.769 56.3733 161.982 56.16C162.494 55.648 162.985 55.392 163.454 55.392C164.052 55.392 164.35 55.648 164.35 56.16C164.35 56.6293 164.094 57.0773 163.582 57.504C163.113 57.9307 162.622 58.3573 162.11 58.784C161.641 59.168 160.916 59.7227 159.934 60.448C159.294 60.9173 158.782 61.3227 158.398 61.664C158.014 61.9627 157.63 62.112 157.246 62.112ZM178.517 84.768C178.303 84.768 178.111 84.6827 177.941 84.512C176.789 83.3173 176.191 81.568 176.149 79.264C176.149 79.0933 176.17 78.9013 176.213 78.688C176.255 78.432 176.277 78.1547 176.277 77.856L176.341 76.512V76.32C176.341 75.552 176.063 75.2747 175.509 75.488C174.655 76.0853 173.503 76.96 172.053 78.112C170.645 79.2213 168.938 80.5867 166.933 82.208C166.079 83.0187 164.991 83.424 163.669 83.424C162.901 83.424 162.239 83.0187 161.685 82.208C161.173 81.3547 160.981 80.544 161.109 79.776C161.237 78.6667 161.685 77.472 162.453 76.192C163.221 74.8693 164.159 73.568 165.269 72.288C166.421 70.9653 167.637 69.8133 168.917 68.832C170.239 67.808 171.498 67.0827 172.693 66.656C173.162 66.4853 173.61 66.3573 174.037 66.272C174.463 66.1867 174.89 66.144 175.317 66.144C177.151 66.144 178.069 66.784 178.069 68.064C178.069 68.4907 177.898 68.704 177.557 68.704C177.429 68.704 177.301 68.704 177.173 68.704C177.045 68.6613 176.917 68.5973 176.789 68.512C176.021 67.872 175.317 67.552 174.677 67.552C174.037 67.552 173.098 67.936 171.861 68.704C170.879 69.3013 169.919 70.048 168.981 70.944C168.042 71.84 167.146 72.8427 166.293 73.952C165.482 75.0187 164.842 75.9787 164.373 76.832C163.903 77.6427 163.626 78.368 163.541 79.008C163.498 79.1787 163.477 79.392 163.477 79.648C163.477 80.3307 163.754 80.672 164.309 80.672C164.991 80.672 166.271 80.0533 168.149 78.816C172.629 75.8293 175.743 73.184 177.493 70.88C177.919 70.3253 178.303 69.5787 178.645 68.64C178.858 68.0427 179.306 67.744 179.989 67.744C180.757 67.744 181.141 68.1707 181.141 69.024C181.141 69.7067 180.821 70.56 180.181 71.584C179.157 74.6987 178.645 76.8533 178.645 78.048C178.73 79.8827 179.178 81.3547 179.989 82.464C180.117 82.592 180.181 82.7627 180.181 82.976C180.181 83.36 179.989 83.744 179.605 84.128C179.221 84.5547 178.858 84.768 178.517 84.768ZM186.847 85.6C186.335 85.6 186.079 85.1947 186.079 84.384C186.079 84.0427 186.058 83.5947 186.015 83.04C186.015 82.4853 186.015 81.8027 186.015 80.992C186.101 80.1387 186.186 79.0507 186.271 77.728C186.357 76.4053 186.442 74.8267 186.527 72.992L186.783 72.224H186.015C185.333 72.224 184.991 71.7547 184.991 70.816C184.991 69.792 185.333 69.28 186.015 69.28C186.186 69.28 186.527 69.1733 187.039 68.96C187.039 68.8747 187.039 68.768 187.039 68.64C187.082 68.512 187.125 68.3627 187.167 68.192C187.21 68.0213 187.231 67.872 187.231 67.744C187.274 67.616 187.295 67.5093 187.295 67.424C187.381 66.6987 187.509 65.7387 187.679 64.544C187.85 63.3493 188.063 61.92 188.319 60.256C188.49 59.5733 188.682 58.7413 188.895 57.76C189.109 56.7787 189.343 55.6267 189.599 54.304L190.047 50.336L190.815 45.664C191.029 44.64 191.455 44.128 192.095 44.128C192.778 44.128 193.119 44.5333 193.119 45.344C193.119 45.8133 193.055 46.496 192.927 47.392C192.842 48.288 192.693 49.376 192.479 50.656C192.394 51.0827 192.287 51.5947 192.159 52.192C192.031 52.7893 191.903 53.5147 191.775 54.368C191.434 55.776 191.05 57.7813 190.623 60.384L189.471 67.68L189.407 68.192L189.343 68.832L190.687 68.64L197.855 69.28L199.263 69.216L200.479 69.152L201.247 65.12C201.333 64.3947 201.439 63.392 201.567 62.112C201.695 60.832 201.866 59.296 202.079 57.504C202.25 56.7787 202.442 55.8613 202.655 54.752C202.911 53.6427 203.125 52.32 203.295 50.784L203.935 45.856C204.063 44.832 204.447 44.32 205.087 44.32C205.855 44.32 206.133 44.8747 205.919 45.984L205.983 46.048L205.279 50.976L202.847 69.024C203.103 69.024 203.317 69.088 203.487 69.216C203.999 69.216 204.255 69.6213 204.255 70.432C204.255 71.584 203.935 72.16 203.295 72.16C203.253 72.16 203.125 72.16 202.911 72.16C202.741 72.16 202.527 72.2027 202.271 72.288C202.229 72.4587 201.973 74.9973 201.503 79.904C201.418 80.288 201.311 80.7787 201.183 81.376C201.098 81.9733 200.97 82.6773 200.799 83.488C200.586 84.5973 200.202 85.152 199.647 85.152C198.965 85.152 198.709 84.576 198.879 83.424C198.965 82.1867 199.114 80.6293 199.327 78.752C199.541 76.8747 199.797 74.6987 200.095 72.224L198.879 72.288L197.599 72.352L195.999 72.288L194.591 72.224C194.165 72.224 193.482 72.1173 192.543 71.904C192.117 71.8187 191.733 71.7547 191.391 71.712C191.05 71.6693 190.73 71.648 190.431 71.648C190.218 71.648 189.727 71.7973 188.959 72.096C188.959 72.0107 188.938 72.032 188.895 72.16C188.895 72.2453 188.874 72.4373 188.831 72.736C188.447 75.2107 188.255 77.8347 188.255 80.608C188.255 81.4187 188.255 82.1013 188.255 82.656C188.255 83.168 188.234 83.5307 188.191 83.744C188.063 84.9813 187.615 85.6 186.847 85.6ZM225.079 84.768C224.866 84.768 224.674 84.6827 224.503 84.512C223.351 83.3173 222.754 81.568 222.711 79.264C222.711 79.0933 222.733 78.9013 222.775 78.688C222.818 78.432 222.839 78.1547 222.839 77.856L222.903 76.512V76.32C222.903 75.552 222.626 75.2747 222.071 75.488C221.218 76.0853 220.066 76.96 218.615 78.112C217.207 79.2213 215.501 80.5867 213.495 82.208C212.642 83.0187 211.554 83.424 210.231 83.424C209.463 83.424 208.802 83.0187 208.247 82.208C207.735 81.3547 207.543 80.544 207.671 79.776C207.799 78.6667 208.247 77.472 209.015 76.192C209.783 74.8693 210.722 73.568 211.831 72.288C212.983 70.9653 214.199 69.8133 215.479 68.832C216.802 67.808 218.061 67.0827 219.255 66.656C219.725 66.4853 220.173 66.3573 220.599 66.272C221.026 66.1867 221.453 66.144 221.879 66.144C223.714 66.144 224.631 66.784 224.631 68.064C224.631 68.4907 224.461 68.704 224.119 68.704C223.991 68.704 223.863 68.704 223.735 68.704C223.607 68.6613 223.479 68.5973 223.351 68.512C222.583 67.872 221.879 67.552 221.239 67.552C220.599 67.552 219.661 67.936 218.423 68.704C217.442 69.3013 216.482 70.048 215.543 70.944C214.605 71.84 213.709 72.8427 212.855 73.952C212.045 75.0187 211.405 75.9787 210.935 76.832C210.466 77.6427 210.189 78.368 210.103 79.008C210.061 79.1787 210.039 79.392 210.039 79.648C210.039 80.3307 210.317 80.672 210.871 80.672C211.554 80.672 212.834 80.0533 214.711 78.816C219.191 75.8293 222.306 73.184 224.055 70.88C224.482 70.3253 224.866 69.5787 225.207 68.64C225.421 68.0427 225.869 67.744 226.551 67.744C227.319 67.744 227.703 68.1707 227.703 69.024C227.703 69.7067 227.383 70.56 226.743 71.584C225.719 74.6987 225.207 76.8533 225.207 78.048C225.293 79.8827 225.741 81.3547 226.551 82.464C226.679 82.592 226.743 82.7627 226.743 82.976C226.743 83.36 226.551 83.744 226.167 84.128C225.783 84.5547 225.421 84.768 225.079 84.768ZM235.458 62.816C234.818 62.816 234.519 62.432 234.562 61.664L235.202 59.232C235.33 58.7627 235.628 58.528 236.098 58.528C237.079 58.528 237.484 58.9333 237.314 59.744C237.271 60.3413 237.122 61.0027 236.866 61.728C236.61 62.4533 236.14 62.816 235.458 62.816ZM233.218 82.976C232.834 82.976 232.578 82.8053 232.45 82.464C232.279 81.9947 232.172 81.4187 232.13 80.736C232.087 80.0533 232.087 79.2853 232.13 78.432C232.215 77.4507 232.45 76.2133 232.834 74.72C233.26 73.2267 233.836 71.4987 234.562 69.536C234.732 69.1093 235.031 68.896 235.458 68.896C236.268 68.896 236.546 69.2587 236.29 69.984C236.119 70.5387 235.97 71.0933 235.842 71.648C235.714 72.2027 235.586 72.7573 235.458 73.312C235.244 74.2933 235.074 75.168 234.946 75.936C234.818 76.704 234.754 77.3867 234.754 77.984C234.754 80.0747 234.775 81.1627 234.818 81.248C234.946 81.6747 234.818 82.08 234.434 82.464C234.05 82.8053 233.644 82.976 233.218 82.976ZM242.49 83.552C242.064 83.552 241.786 83.0613 241.658 82.08C241.53 81.056 241.466 80.0107 241.466 78.944C241.466 78.2613 241.466 77.6427 241.466 77.088C241.509 76.4907 241.53 76.0427 241.53 75.744C241.53 75.3173 241.552 74.784 241.594 74.144C241.637 73.4613 241.701 72.6933 241.786 71.84C241.914 70.0907 241.978 68.768 241.978 67.872C241.978 67.4453 241.957 67.04 241.914 66.656C241.872 66.2293 241.85 65.8453 241.85 65.504V65.248C241.85 64.736 242.128 64.48 242.682 64.48C243.109 64.48 243.344 64.736 243.386 65.248C243.472 65.7173 243.536 66.6773 243.578 68.128C243.621 69.5787 243.664 71.4987 243.706 73.888C243.706 74.528 243.834 74.848 244.09 74.848C244.389 74.848 244.837 74.3573 245.434 73.376C246.672 71.328 248.016 69.6 249.466 68.192C250.533 67.2107 251.514 66.72 252.41 66.72C253.477 66.72 254.394 67.1893 255.162 68.128C255.418 68.4267 255.546 68.7467 255.546 69.088C255.546 69.6427 255.312 69.92 254.842 69.92C254.672 69.92 254.48 69.856 254.266 69.728L254.202 69.792C253.392 69.1947 252.858 68.896 252.602 68.896C251.578 68.896 250.618 69.4507 249.722 70.56C246.608 74.4 244.688 78.2827 243.962 82.208C243.792 83.104 243.301 83.552 242.49 83.552Z" fill="url(#paint12_linear_3369_1548)"/>
</g>
<defs>
<filter id="filter0_d_3369_1548" x="0" y="0" width="259.547" height="115" filterUnits="userSpaceOnUse" color-interpolation-filters="sRGB">
<feFlood flood-opacity="0" result="BackgroundImageFix"/>
<feColorMatrix in="SourceAlpha" type="matrix" values="0 0 0 0 0 0 0 0 0 0 0 0 0 0 0 0 0 0 127 0" result="hardAlpha"/>
<feOffset dy="4"/>
<feGaussianBlur stdDeviation="2"/>
<feComposite in2="hardAlpha" operator="out"/>
<feColorMatrix type="matrix" values="0 0 0 0 0 0 0 0 0 0 0 0 0 0 0 0 0 0 0.25 0"/>
<feBlend mode="normal" in2="BackgroundImageFix" result="effect1_dropShadow_3369_1548"/>
<feBlend mode="normal" in="SourceGraphic" in2="effect1_dropShadow_3369_1548" result="shape"/>
</filter>
<linearGradient id="paint0_linear_3369_1548" x1="35.3872" y1="110.126" x2="91.9155" y2="1.98524" gradientUnits="userSpaceOnUse">
<stop stop-color="#FCE95F"/>
<stop offset="0.4925" stop-color="#FFEE95"/>
<stop offset="0.7742" stop-color="#A14400"/>
<stop offset="1" stop-color="#FFA506"/>
</linearGradient>
<linearGradient id="paint1_linear_3369_1548" x1="92.5431" y1="22.2795" x2="74.9765" y2="22.2795" gradientUnits="userSpaceOnUse">
<stop stop-color="#AA540E"/>
<stop offset="0.6204" stop-color="#FFEE95"/>
<stop offset="1" stop-color="#FCE95F"/>
</linearGradient>
<linearGradient id="paint2_linear_3369_1548" x1="25.5945" y1="72.7581" x2="62.8714" y2="72.7581" gradientUnits="userSpaceOnUse">
<stop stop-color="#FCE95F"/>
<stop offset="0.4925" stop-color="#FFEE95"/>
<stop offset="0.7742" stop-color="#A14400"/>
<stop offset="1" stop-color="#FFA506"/>
</linearGradient>
<linearGradient id="paint3_linear_3369_1548" x1="36.6001" y1="110.766" x2="93.1285" y2="2.62473" gradientUnits="userSpaceOnUse">
<stop stop-color="#FCE95F"/>
<stop offset="0.4925" stop-color="#FFEE95"/>
<stop offset="0.7742" stop-color="#A14400"/>
<stop offset="1" stop-color="#FFA506"/>
</linearGradient>
<linearGradient id="paint4_linear_3369_1548" x1="38.424" y1="20.4658" x2="86.6234" y2="107.306" gradientUnits="userSpaceOnUse">
<stop stop-color="#FCE95F"/>
<stop offset="0.4925" stop-color="#FFEE95"/>
<stop offset="0.7742" stop-color="#A14400"/>
<stop offset="1" stop-color="#FFA506"/>
</linearGradient>
<linearGradient id="paint5_linear_3369_1548" x1="56.4622" y1="45.7522" x2="58.6376" y2="47.9275" gradientUnits="userSpaceOnUse">
<stop stop-color="#FCE95F"/>
<stop offset="0.4925" stop-color="#FFEE95"/>
<stop offset="0.7742" stop-color="#A14400"/>
<stop offset="1" stop-color="#FFA506"/>
</linearGradient>
<linearGradient id="paint6_linear_3369_1548" x1="56.8108" y1="46.132" x2="58.2581" y2="47.5794" gradientUnits="userSpaceOnUse">
<stop stop-color="#A14400"/>
<stop offset="1" stop-color="#FFEE95"/>
</linearGradient>
<linearGradient id="paint7_linear_3369_1548" x1="3.99955" y1="45.0005" x2="112" y2="45.0005" gradientUnits="userSpaceOnUse">
<stop stop-color="#FFEE95"/>
<stop offset="1" stop-color="#A14400"/>
</linearGradient>
<linearGradient id="paint8_linear_3369_1548" x1="8.22889" y1="44.5425" x2="74.133" y2="91.4956" gradientUnits="userSpaceOnUse">
<stop stop-color="#FFEE95"/>
<stop offset="0.7742" stop-color="#A14400"/>
<stop offset="1" stop-color="#FFA506"/>
</linearGradient>
<linearGradient id="paint9_linear_3369_1548" x1="20.0001" y1="67.5004" x2="103" y2="67.5004" gradientUnits="userSpaceOnUse">
<stop stop-color="#FFA506"/>
<stop offset="0.2258" stop-color="#A14400"/>
<stop offset="0.5075" stop-color="#FFEE95"/>
<stop offset="1" stop-color="#FCE95F"/>
</linearGradient>
<linearGradient id="paint10_linear_3369_1548" x1="8.001" y1="42.0005" x2="112.001" y2="42.0005" gradientUnits="userSpaceOnUse">
<stop stop-color="#FFA506"/>
<stop offset="0.2258" stop-color="#A14400"/>
<stop offset="0.5075" stop-color="#FFEE95"/>
<stop offset="1" stop-color="#FCE95F"/>
</linearGradient>
<linearGradient id="paint11_linear_3369_1548" x1="35.6771" y1="7.85884" x2="99.338" y2="122.557" gradientUnits="userSpaceOnUse">
<stop stop-color="#FCE95F"/>
<stop offset="0.4925" stop-color="#FFEE95"/>
<stop offset="0.7742" stop-color="#A14400"/>
<stop offset="1" stop-color="#FFA506"/>
</linearGradient>
<linearGradient id="paint12_linear_3369_1548" x1="86" y1="92.5" x2="264" y2="47" gradientUnits="userSpaceOnUse">
<stop stop-color="#AA540E"/>
<stop offset="0.62" stop-color="#FFEE95"/>
<stop offset="1" stop-color="#FCE95F"/>
</linearGradient>
</defs>
</svg>
